# Blender 4.1.1
# www.blender.org
mtllib playerBullet.mtl
o Body
v 0.500000 0.520389 -0.500000
v 0.500000 -0.479611 -0.500000
v 0.500000 0.520389 0.500000
v 0.500000 -0.479611 0.500000
v -0.500000 0.520389 -0.500000
v -0.500000 -0.479611 -0.500000
v -0.500000 0.520389 0.500000
v -0.500000 -0.479611 0.500000
vn -0.0000 1.0000 -0.0000
vn -0.0000 -0.0000 1.0000
vn -1.0000 -0.0000 -0.0000
vn -0.0000 -1.0000 -0.0000
vn 1.0000 -0.0000 -0.0000
vn -0.0000 -0.0000 -1.0000
vt 0.572280 0.383860
vt 0.383860 0.572280
vt 0.383860 0.383860
vt 0.195439 0.760701
vt 0.195439 0.572280
vt 0.383860 0.007019
vt 0.195439 0.195439
vt 0.195439 0.007019
vt 0.195439 0.383860
vt 0.007019 0.572280
vt 0.007019 0.383860
vt 0.383860 0.195439
vt 0.572280 0.572280
vt 0.383860 0.760701
s 0
usemtl Material.001
f 5/1/1 3/2/1 1/3/1
f 3/2/2 8/4/2 4/5/2
f 7/6/3 6/7/3 8/8/3
f 2/9/4 8/10/4 6/11/4
f 1/3/5 4/5/5 2/9/5
f 5/12/6 2/9/6 6/7/6
f 5/1/1 7/13/1 3/2/1
f 3/2/2 7/14/2 8/4/2
f 7/6/3 5/12/3 6/7/3
f 2/9/4 4/5/4 8/10/4
f 1/3/5 3/2/5 4/5/5
f 5/12/6 1/3/6 2/9/6
